ply
format ascii 1.0
comment Created by Blender 3.6.5 - www.blender.org
element vertex 256
property float x
property float y
property float z
property float nx
property float ny
property float nz
element face 504
property list uchar uint vertex_indices
end_header
-0.908254 -0.200000 -0.200000 -0.982204 -0.132808 -0.132802
-0.805430 -0.408714 -0.408609 -0.779244 -0.443721 -0.442596
-0.831273 -0.449904 -0.200000 -0.861110 -0.498397 -0.100451
-0.649904 -0.649904 -0.200000 -0.697287 -0.697287 -0.166077
-0.408714 -0.805430 -0.408609 -0.443721 -0.779243 -0.442596
-0.449904 -0.831273 -0.200000 -0.498397 -0.861110 -0.100451
-0.543008 -0.543008 -0.541943 -0.579145 -0.579145 -0.573744
-0.651436 -0.200000 -0.649851 -0.700164 -0.166426 -0.694315
-0.410635 -0.410635 -0.806855 -0.445021 -0.445020 -0.777119
-0.831294 -0.200000 -0.449851 -0.862167 -0.100405 -0.496575
-0.200000 -0.908254 -0.200000 -0.132808 -0.982204 -0.132802
-0.200000 -0.831294 -0.449851 -0.100406 -0.862167 -0.496575
-0.200000 -0.651436 -0.649851 -0.166426 -0.700163 -0.694315
-0.200000 -0.451436 -0.832416 -0.098588 -0.499376 -0.860758
-0.200000 -0.200000 -0.909568 -0.131992 -0.131992 -0.982424
-0.451436 -0.200000 -0.832416 -0.499376 -0.098588 -0.860758
-0.831273 -0.449904 0.200000 -0.861110 -0.498397 0.100451
-0.908254 -0.200000 0.200000 -0.982204 -0.132808 0.132802
-0.805430 -0.408714 0.408609 -0.779244 -0.443721 0.442596
-0.831294 -0.200000 0.449851 -0.862167 -0.100405 0.496575
-0.449904 -0.831273 0.200000 -0.498397 -0.861110 0.100451
-0.649904 -0.649904 0.200000 -0.697287 -0.697287 0.166077
-0.408714 -0.805430 0.408609 -0.443721 -0.779243 0.442596
-0.543008 -0.543008 0.541943 -0.579145 -0.579145 0.573744
-0.651436 -0.200000 0.649851 -0.700164 -0.166426 0.694315
-0.410635 -0.410635 0.806855 -0.445021 -0.445020 0.777119
-0.451436 -0.200000 0.832416 -0.499376 -0.098588 0.860758
-0.200000 -0.908254 0.200000 -0.132808 -0.982204 0.132802
-0.200000 -0.831294 0.449851 -0.100406 -0.862167 0.496575
-0.200000 -0.651436 0.649851 -0.166426 -0.700163 0.694315
-0.200000 -0.451436 0.832416 -0.098588 -0.499376 0.860758
-0.200000 -0.200000 0.909568 -0.131992 -0.131992 0.982424
-0.831294 0.200000 -0.449851 -0.862167 0.100405 -0.496575
-0.908254 0.200000 -0.200000 -0.982204 0.132808 -0.132802
-0.805430 0.408714 -0.408609 -0.779243 0.443721 -0.442596
-0.831273 0.449904 -0.200000 -0.861110 0.498397 -0.100451
-0.651436 0.200000 -0.649851 -0.700164 0.166426 -0.694315
-0.410635 0.410635 -0.806855 -0.445021 0.445021 -0.777119
-0.543007 0.543007 -0.541943 -0.579145 0.579145 -0.573744
-0.649904 0.649904 -0.200000 -0.697287 0.697287 -0.166077
-0.408714 0.805430 -0.408609 -0.443721 0.779243 -0.442596
-0.449904 0.831273 -0.200000 -0.498397 0.861109 -0.100451
-0.200000 0.200000 -0.909568 -0.131992 0.131992 -0.982424
-0.451436 0.200000 -0.832416 -0.499376 0.098588 -0.860758
-0.200000 0.651436 -0.649851 -0.166426 0.700164 -0.694315
-0.200000 0.908254 -0.200000 -0.132809 0.982204 -0.132802
-0.908254 0.200000 0.200000 -0.982204 0.132808 0.132802
-0.831294 0.200000 0.449851 -0.862167 0.100405 0.496575
-0.831273 0.449904 0.200000 -0.861110 0.498397 0.100451
-0.805430 0.408714 0.408609 -0.779243 0.443721 0.442596
-0.651436 0.200000 0.649851 -0.700164 0.166426 0.694315
-0.451436 0.200000 0.832416 -0.499376 0.098588 0.860758
-0.649904 0.649904 0.200000 -0.697287 0.697287 0.166077
-0.543007 0.543007 0.541943 -0.579145 0.579145 0.573744
-0.410635 0.410635 0.806855 -0.445021 0.445021 0.777118
-0.449904 0.831273 0.200000 -0.498397 0.861109 0.100451
-0.408714 0.805430 0.408609 -0.443721 0.779243 0.442596
-0.200000 0.200000 0.909568 -0.131992 0.131992 0.982424
-0.200000 0.651436 0.649851 -0.166426 0.700164 0.694315
-0.200000 0.451436 0.832416 -0.098588 0.499376 0.860758
-0.200000 0.908254 0.200000 -0.132809 0.982204 0.132803
-0.200000 0.831294 0.449851 -0.100406 0.862167 0.496576
0.200000 -0.908254 -0.200000 0.132808 -0.982204 -0.132803
0.200000 -0.831294 -0.449851 0.100405 -0.862167 -0.496576
0.200000 -0.651436 -0.649851 0.166426 -0.700164 -0.694315
0.200000 -0.451436 -0.832416 0.098587 -0.499376 -0.860758
0.200000 -0.200000 -0.909568 0.131992 -0.131992 -0.982424
0.408714 -0.805430 -0.408609 0.443721 -0.779243 -0.442596
0.449904 -0.831274 -0.200000 0.498397 -0.861110 -0.100451
0.410635 -0.410635 -0.806855 0.445020 -0.445021 -0.777119
0.543008 -0.543008 -0.541943 0.579145 -0.579145 -0.573744
0.649904 -0.649904 -0.200000 0.697287 -0.697287 -0.166077
0.651436 -0.200000 -0.649851 0.700163 -0.166426 -0.694315
0.451436 -0.200000 -0.832416 0.499376 -0.098588 -0.860758
0.805430 -0.408714 -0.408609 0.779243 -0.443721 -0.442596
0.831274 -0.449904 -0.200000 0.861110 -0.498397 -0.100451
0.908255 -0.200000 -0.200000 0.982204 -0.132808 -0.132803
0.831294 -0.200000 -0.449851 0.862167 -0.100406 -0.496576
0.200000 -0.908254 0.200000 0.132808 -0.982204 0.132803
0.200000 -0.831294 0.449851 0.100405 -0.862167 0.496575
0.200000 -0.651436 0.649851 0.166426 -0.700164 0.694315
0.200000 -0.451436 0.832416 0.098587 -0.499376 0.860758
0.200000 -0.200000 0.909568 0.131992 -0.131992 0.982424
0.449904 -0.831274 0.200000 0.498397 -0.861110 0.100451
0.408714 -0.805430 0.408609 0.443721 -0.779243 0.442596
0.649904 -0.649904 0.200000 0.697287 -0.697287 0.166077
0.543008 -0.543008 0.541943 0.579145 -0.579145 0.573744
0.410635 -0.410635 0.806855 0.445020 -0.445021 0.777119
0.651436 -0.200000 0.649851 0.700163 -0.166426 0.694315
0.451436 -0.200000 0.832416 0.499375 -0.098588 0.860758
0.831274 -0.449904 0.200000 0.861110 -0.498397 0.100451
0.805430 -0.408714 0.408609 0.779243 -0.443721 0.442596
0.908255 -0.200000 0.200000 0.982204 -0.132808 0.132803
0.831294 -0.200000 0.449851 0.862167 -0.100406 0.496576
0.200000 0.200000 -0.909568 0.131992 0.131992 -0.982424
-0.200000 0.451436 -0.832416 -0.098588 0.499376 -0.860758
0.200000 0.651436 -0.649851 0.166426 0.700164 -0.694315
0.200000 0.831294 -0.449851 0.100405 0.862167 -0.496576
-0.200000 0.831294 -0.449851 -0.100406 0.862167 -0.496576
0.200000 0.908255 -0.200000 0.132808 0.982204 -0.132803
0.451436 0.200000 -0.832416 0.499376 0.098588 -0.860758
0.410635 0.410635 -0.806855 0.445020 0.445021 -0.777119
0.200000 0.451436 -0.832416 0.098587 0.499376 -0.860758
0.651436 0.200000 -0.649851 0.700163 0.166426 -0.694315
0.408714 0.805430 -0.408609 0.443721 0.779243 -0.442597
0.649904 0.649904 -0.200000 0.697287 0.697287 -0.166077
0.543008 0.543008 -0.541943 0.579145 0.579145 -0.573745
0.908255 0.200000 -0.200000 0.982204 0.132808 -0.132803
0.831294 0.200000 -0.449851 0.862167 0.100406 -0.496576
0.805430 0.408714 -0.408609 0.779243 0.443721 -0.442597
0.200000 0.200000 0.909568 0.131992 0.131992 0.982424
0.200000 0.451436 0.832416 0.098587 0.499376 0.860758
0.200000 0.908255 0.200000 0.132808 0.982204 0.132803
0.200000 0.831294 0.449851 0.100405 0.862167 0.496576
0.200000 0.651436 0.649851 0.166426 0.700164 0.694315
0.451436 0.200000 0.832416 0.499376 0.098588 0.860758
0.651436 0.200000 0.649851 0.700163 0.166426 0.694315
0.410635 0.410635 0.806855 0.445020 0.445021 0.777119
0.543008 0.543008 0.541943 0.579145 0.579145 0.573745
0.449905 0.831274 0.200000 0.498397 0.861110 0.100452
0.449905 0.831274 -0.200000 0.498397 0.861110 -0.100452
0.408714 0.805430 0.408609 0.443721 0.779243 0.442597
0.649904 0.649904 0.200000 0.697287 0.697287 0.166077
0.908255 0.200000 0.200000 0.982204 0.132808 0.132803
0.831294 0.200000 0.449851 0.862167 0.100406 0.496576
0.831274 0.449904 0.200000 0.861110 0.498397 0.100451
0.831274 0.449904 -0.200000 0.861110 0.498397 -0.100451
0.805430 0.408714 0.408609 0.779243 0.443721 0.442597
-0.606197 -1.201810 -0.178634 -0.982204 -0.132808 -0.132802
-0.503373 -1.410524 -0.387243 -0.779244 -0.443721 -0.442596
-0.529216 -1.451714 -0.178634 -0.861110 -0.498397 -0.100451
-0.347847 -1.651714 -0.178634 -0.697287 -0.697287 -0.166077
-0.106656 -1.807240 -0.387243 -0.443721 -0.779243 -0.442596
-0.147847 -1.833084 -0.178634 -0.498397 -0.861110 -0.100451
-0.240950 -1.544818 -0.520577 -0.579145 -0.579145 -0.573744
-0.349379 -1.201810 -0.628485 -0.700164 -0.166426 -0.694315
-0.108578 -1.412445 -0.785489 -0.445021 -0.445021 -0.777119
-0.529236 -1.201810 -0.428485 -0.862167 -0.100405 -0.496575
0.102057 -1.910064 -0.178634 -0.132808 -0.982204 -0.132802
0.102057 -1.833104 -0.428485 -0.100406 -0.862167 -0.496575
0.102057 -1.653247 -0.628485 -0.166426 -0.700164 -0.694315
0.102057 -1.453247 -0.811050 -0.098588 -0.499376 -0.860758
0.102057 -1.201810 -0.888202 -0.131992 -0.131992 -0.982424
-0.149379 -1.201810 -0.811050 -0.499376 -0.098588 -0.860758
-0.529216 -1.451714 0.221366 -0.861110 -0.498397 0.100451
-0.606197 -1.201810 0.221366 -0.982204 -0.132808 0.132802
-0.503373 -1.410524 0.429975 -0.779243 -0.443721 0.442596
-0.529236 -1.201810 0.471217 -0.862167 -0.100405 0.496575
-0.147847 -1.833084 0.221366 -0.498397 -0.861110 0.100451
-0.347847 -1.651714 0.221366 -0.697287 -0.697287 0.166077
-0.106656 -1.807240 0.429975 -0.443721 -0.779243 0.442596
-0.240950 -1.544818 0.563309 -0.579145 -0.579145 0.573744
-0.349379 -1.201810 0.671217 -0.700164 -0.166426 0.694315
-0.108578 -1.412445 0.828221 -0.445021 -0.445021 0.777119
-0.149379 -1.201810 0.853782 -0.499376 -0.098588 0.860758
0.102057 -1.910064 0.221366 -0.132808 -0.982204 0.132802
0.102057 -1.833104 0.471217 -0.100406 -0.862167 0.496575
0.102057 -1.653247 0.671217 -0.166426 -0.700164 0.694315
0.102057 -1.453247 0.853782 -0.098588 -0.499376 0.860758
0.102057 -1.201810 0.930934 -0.131992 -0.131992 0.982424
-0.529236 -0.801810 -0.428485 -0.862167 0.100405 -0.496575
-0.606197 -0.801810 -0.178634 -0.982204 0.132808 -0.132802
-0.503373 -0.593097 -0.387243 -0.779243 0.443721 -0.442596
-0.529216 -0.551906 -0.178634 -0.861110 0.498397 -0.100451
-0.349379 -0.801810 -0.628485 -0.700164 0.166426 -0.694315
-0.108577 -0.591175 -0.785489 -0.445021 0.445021 -0.777119
-0.240950 -0.458803 -0.520576 -0.579145 0.579145 -0.573744
-0.347847 -0.351906 -0.178634 -0.697287 0.697287 -0.166077
-0.106656 -0.196380 -0.387243 -0.443721 0.779243 -0.442596
-0.147847 -0.170537 -0.178634 -0.498397 0.861109 -0.100451
0.102057 -0.801810 -0.888202 -0.131992 0.131992 -0.982424
-0.149379 -0.801810 -0.811050 -0.499376 0.098588 -0.860758
0.102057 -0.350374 -0.628485 -0.166426 0.700163 -0.694315
0.102057 -0.093556 -0.178634 -0.132809 0.982204 -0.132802
-0.606197 -0.801810 0.221366 -0.982204 0.132808 0.132802
-0.529236 -0.801810 0.471217 -0.862167 0.100405 0.496575
-0.529216 -0.551906 0.221366 -0.861110 0.498397 0.100451
-0.503373 -0.593097 0.429975 -0.779244 0.443721 0.442596
-0.349379 -0.801810 0.671217 -0.700164 0.166426 0.694315
-0.149379 -0.801810 0.853782 -0.499376 0.098588 0.860758
-0.347847 -0.351906 0.221366 -0.697287 0.697287 0.166077
-0.240950 -0.458803 0.563309 -0.579145 0.579145 0.573744
-0.108577 -0.591175 0.828221 -0.445021 0.445021 0.777119
-0.147847 -0.170537 0.221366 -0.498397 0.861109 0.100451
-0.106656 -0.196380 0.429975 -0.443721 0.779243 0.442596
0.102057 -0.801810 0.930934 -0.131992 0.131992 0.982424
0.102057 -0.350374 0.671217 -0.166426 0.700164 0.694315
0.102057 -0.550374 0.853782 -0.098588 0.499376 0.860758
0.102057 -0.093556 0.221366 -0.132809 0.982204 0.132803
0.102057 -0.170516 0.471217 -0.100406 0.862167 0.496576
0.502057 -1.910065 -0.178634 0.132808 -0.982204 -0.132803
0.502057 -1.833104 -0.428485 0.100405 -0.862167 -0.496576
0.502057 -1.653247 -0.628485 0.166426 -0.700164 -0.694315
0.502057 -1.453247 -0.811050 0.098588 -0.499376 -0.860758
0.502057 -1.201810 -0.888202 0.131992 -0.131992 -0.982424
0.710771 -1.807240 -0.387243 0.443721 -0.779243 -0.442596
0.751962 -1.833084 -0.178634 0.498397 -0.861110 -0.100451
0.712692 -1.412445 -0.785489 0.445021 -0.445020 -0.777119
0.845065 -1.544818 -0.520577 0.579145 -0.579145 -0.573744
0.951962 -1.651715 -0.178634 0.697287 -0.697287 -0.166077
0.953494 -1.201810 -0.628485 0.700163 -0.166426 -0.694315
0.753494 -1.201810 -0.811050 0.499375 -0.098588 -0.860758
1.107487 -1.410524 -0.387243 0.779243 -0.443721 -0.442596
1.133331 -1.451715 -0.178634 0.861110 -0.498397 -0.100451
1.210312 -1.201810 -0.178634 0.982204 -0.132809 -0.132803
1.133351 -1.201810 -0.428485 0.862167 -0.100406 -0.496576
0.502057 -1.910065 0.221366 0.132808 -0.982204 0.132803
0.502057 -1.833104 0.471217 0.100405 -0.862167 0.496575
0.502057 -1.653247 0.671217 0.166426 -0.700164 0.694315
0.502057 -1.453247 0.853782 0.098588 -0.499376 0.860758
0.502057 -1.201810 0.930935 0.131992 -0.131992 0.982424
0.751962 -1.833084 0.221366 0.498397 -0.861110 0.100451
0.710771 -1.807240 0.429975 0.443721 -0.779243 0.442596
0.951962 -1.651715 0.221366 0.697287 -0.697287 0.166077
0.845065 -1.544818 0.563309 0.579145 -0.579145 0.573744
0.712692 -1.412445 0.828221 0.445020 -0.445020 0.777119
0.953494 -1.201810 0.671218 0.700163 -0.166426 0.694315
0.753494 -1.201810 0.853782 0.499376 -0.098588 0.860758
1.133331 -1.451715 0.221366 0.861110 -0.498397 0.100451
1.107487 -1.410524 0.429975 0.779243 -0.443721 0.442596
1.210312 -1.201810 0.221366 0.982204 -0.132809 0.132802
1.133351 -1.201810 0.471217 0.862167 -0.100406 0.496575
0.502057 -0.801810 -0.888202 0.131992 0.131992 -0.982424
0.102057 -0.550374 -0.811050 -0.098588 0.499376 -0.860758
0.502057 -0.350374 -0.628485 0.166426 0.700164 -0.694315
0.502057 -0.170516 -0.428485 0.100405 0.862167 -0.496576
0.102057 -0.170516 -0.428485 -0.100406 0.862167 -0.496576
0.502057 -0.093556 -0.178634 0.132808 0.982204 -0.132803
0.753494 -0.801810 -0.811050 0.499375 0.098588 -0.860758
0.712692 -0.591175 -0.785489 0.445020 0.445021 -0.777119
0.502057 -0.550374 -0.811050 0.098587 0.499376 -0.860758
0.953494 -0.801810 -0.628485 0.700163 0.166426 -0.694315
0.710771 -0.196380 -0.387243 0.443721 0.779243 -0.442597
0.951962 -0.351906 -0.178634 0.697287 0.697287 -0.166077
0.845065 -0.458803 -0.520577 0.579145 0.579145 -0.573745
1.210312 -0.801810 -0.178634 0.982204 0.132808 -0.132803
1.133351 -0.801810 -0.428485 0.862167 0.100406 -0.496576
1.107488 -0.593096 -0.387243 0.779243 0.443721 -0.442597
0.502057 -0.801810 0.930935 0.131992 0.131992 0.982424
0.502057 -0.550374 0.853782 0.098587 0.499376 0.860758
0.502057 -0.093555 0.221366 0.132808 0.982204 0.132803
0.502057 -0.170516 0.471217 0.100405 0.862167 0.496576
0.502057 -0.350374 0.671217 0.166426 0.700164 0.694315
0.753494 -0.801810 0.853782 0.499376 0.098588 0.860758
0.953494 -0.801810 0.671218 0.700164 0.166426 0.694315
0.712692 -0.591175 0.828221 0.445020 0.445021 0.777119
0.845065 -0.458803 0.563309 0.579145 0.579145 0.573744
0.751962 -0.170537 0.221366 0.498397 0.861110 0.100452
0.751962 -0.170537 -0.178634 0.498397 0.861110 -0.100452
0.710771 -0.196380 0.429976 0.443721 0.779243 0.442597
0.951962 -0.351906 0.221366 0.697287 0.697287 0.166077
1.210312 -0.801810 0.221366 0.982204 0.132808 0.132803
1.133351 -0.801810 0.471217 0.862167 0.100406 0.496576
1.133331 -0.551906 0.221366 0.861110 0.498397 0.100451
1.133331 -0.551906 -0.178634 0.861110 0.498397 -0.100451
1.107488 -0.593096 0.429976 0.779243 0.443721 0.442597
3 0 1 2
3 3 4 5
3 3 1 6
3 7 8 6
3 7 1 9
3 10 4 11
3 12 8 13
3 12 4 6
3 14 8 15
3 0 16 17
3 17 18 19
3 3 20 21
3 16 3 21
3 21 22 23
3 18 21 23
3 24 18 23
3 24 25 26
3 20 10 27
3 22 27 28
3 29 22 28
3 25 29 30
3 31 25 30
3 32 0 33
3 34 33 35
3 36 15 7
3 36 9 32
3 37 36 38
3 34 36 32
3 39 34 35
3 40 39 41
3 42 15 43
3 37 42 43
3 44 37 38
3 40 44 38
3 45 40 41
3 33 17 46
3 46 19 47
3 35 46 48
3 49 46 47
3 47 24 50
3 51 24 26
3 52 35 48
3 49 52 48
3 49 50 53
3 54 50 51
3 41 52 55
3 56 52 53
3 51 31 57
3 54 58 53
3 54 57 59
3 60 41 55
3 56 60 55
3 56 58 61
3 62 11 63
3 64 13 65
3 64 11 12
3 66 13 14
3 62 67 68
3 64 69 70
3 64 67 63
3 71 67 70
3 66 69 65
3 72 69 73
3 71 74 75
3 72 74 70
3 76 74 77
3 27 62 78
3 28 78 79
3 80 28 79
3 30 80 81
3 31 81 82
3 78 68 83
3 84 78 83
3 85 68 71
3 85 84 83
3 80 84 86
3 87 80 86
3 88 87 86
3 82 87 89
3 85 75 90
3 91 85 90
3 92 75 76
3 92 91 90
3 88 91 93
3 94 14 42
3 95 94 42
3 96 95 44
3 97 44 98
3 99 98 45
3 94 73 66
3 100 72 73
3 101 94 102
3 101 103 100
3 96 101 102
3 104 96 97
3 104 105 106
3 99 104 97
3 103 77 72
3 107 77 108
3 109 103 106
3 109 107 108
3 105 109 106
3 57 82 110
3 111 58 59
3 59 110 111
3 112 45 60
3 113 60 61
3 61 114 113
3 115 88 116
3 110 89 115
3 117 116 118
3 117 114 111
3 117 110 115
3 119 105 120
3 119 99 112
3 121 122 119
3 121 112 113
3 121 114 118
3 123 76 107
3 123 93 92
3 116 93 124
3 125 107 126
3 125 105 122
3 127 123 125
3 127 122 118
3 127 116 124
3 0 9 1
3 3 6 4
3 3 2 1
3 7 15 8
3 7 6 1
3 10 5 4
3 12 6 8
3 12 11 4
3 14 13 8
3 0 2 16
3 17 16 18
3 3 5 20
3 16 2 3
3 21 20 22
3 18 16 21
3 24 19 18
3 24 23 25
3 20 5 10
3 22 20 27
3 29 23 22
3 25 23 29
3 31 26 25
3 32 9 0
3 34 32 33
3 36 43 15
3 36 7 9
3 37 43 36
3 34 38 36
3 39 38 34
3 40 38 39
3 42 14 15
3 37 95 42
3 44 95 37
3 40 98 44
3 45 98 40
3 33 0 17
3 46 17 19
3 35 33 46
3 49 48 46
3 47 19 24
3 51 50 24
3 52 39 35
3 49 53 52
3 49 47 50
3 54 53 50
3 41 39 52
3 56 55 52
3 51 26 31
3 54 59 58
3 54 51 57
3 60 45 41
3 56 61 60
3 56 53 58
3 62 10 11
3 64 12 13
3 64 63 11
3 66 65 13
3 62 63 67
3 64 65 69
3 64 70 67
3 71 68 67
3 66 73 69
3 72 70 69
3 71 70 74
3 72 77 74
3 76 75 74
3 27 10 62
3 28 27 78
3 80 29 28
3 30 29 80
3 31 30 81
3 78 62 68
3 84 79 78
3 85 83 68
3 85 86 84
3 80 79 84
3 87 81 80
3 88 89 87
3 82 81 87
3 85 71 75
3 91 86 85
3 92 90 75
3 92 93 91
3 88 86 91
3 94 66 14
3 95 102 94
3 96 102 95
3 97 96 44
3 99 97 98
3 94 100 73
3 100 103 72
3 101 100 94
3 101 106 103
3 96 106 101
3 104 106 96
3 104 120 105
3 99 120 104
3 103 108 77
3 107 76 77
3 109 108 103
3 109 126 107
3 105 126 109
3 57 31 82
3 111 114 58
3 59 57 110
3 112 99 45
3 113 112 60
3 61 58 114
3 115 89 88
3 110 82 89
3 117 115 116
3 117 118 114
3 117 111 110
3 119 122 105
3 119 120 99
3 121 118 122
3 121 119 112
3 121 113 114
3 123 92 76
3 123 124 93
3 116 88 93
3 125 123 107
3 125 126 105
3 127 124 123
3 127 125 122
3 127 118 116
3 128 129 130
3 131 132 133
3 131 129 134
3 135 136 134
3 135 129 137
3 138 132 139
3 140 136 141
3 140 132 134
3 142 136 143
3 128 144 145
3 145 146 147
3 131 148 149
3 144 131 149
3 149 150 151
3 146 149 151
3 152 146 151
3 152 153 154
3 148 138 155
3 150 155 156
3 157 150 156
3 153 157 158
3 159 153 158
3 160 128 161
3 162 161 163
3 164 143 135
3 164 137 160
3 165 164 166
3 162 164 160
3 167 162 163
3 168 167 169
3 170 143 171
3 165 170 171
3 172 165 166
3 168 172 166
3 173 168 169
3 161 145 174
3 174 147 175
3 163 174 176
3 177 174 175
3 175 152 178
3 179 152 154
3 180 163 176
3 177 180 176
3 177 178 181
3 182 178 179
3 169 180 183
3 184 180 181
3 179 159 185
3 182 186 181
3 182 185 187
3 188 169 183
3 184 188 183
3 184 186 189
3 190 139 191
3 192 141 193
3 192 139 140
3 194 141 142
3 190 195 196
3 192 197 198
3 192 195 191
3 199 195 198
3 194 197 193
3 200 197 201
3 199 202 203
3 200 202 198
3 204 202 205
3 155 190 206
3 156 206 207
3 208 156 207
3 158 208 209
3 159 209 210
3 206 196 211
3 212 206 211
3 213 196 199
3 213 212 211
3 208 212 214
3 215 208 214
3 216 215 214
3 210 215 217
3 213 203 218
3 219 213 218
3 220 203 204
3 220 219 218
3 216 219 221
3 222 142 170
3 223 222 170
3 224 223 172
3 225 172 226
3 227 226 173
3 222 201 194
3 228 200 201
3 229 222 230
3 229 231 228
3 224 229 230
3 232 224 225
3 232 233 234
3 227 232 225
3 231 205 200
3 235 205 236
3 237 231 234
3 237 235 236
3 233 237 234
3 185 210 238
3 239 186 187
3 187 238 239
3 240 173 188
3 241 188 189
3 189 242 241
3 243 216 244
3 238 217 243
3 245 244 246
3 245 242 239
3 245 238 243
3 247 233 248
3 247 227 240
3 249 250 247
3 249 240 241
3 249 242 246
3 251 204 235
3 251 221 220
3 244 221 252
3 253 235 254
3 253 233 250
3 255 251 253
3 255 250 246
3 255 244 252
3 128 137 129
3 131 134 132
3 131 130 129
3 135 143 136
3 135 134 129
3 138 133 132
3 140 134 136
3 140 139 132
3 142 141 136
3 128 130 144
3 145 144 146
3 131 133 148
3 144 130 131
3 149 148 150
3 146 144 149
3 152 147 146
3 152 151 153
3 148 133 138
3 150 148 155
3 157 151 150
3 153 151 157
3 159 154 153
3 160 137 128
3 162 160 161
3 164 171 143
3 164 135 137
3 165 171 164
3 162 166 164
3 167 166 162
3 168 166 167
3 170 142 143
3 165 223 170
3 172 223 165
3 168 226 172
3 173 226 168
3 161 128 145
3 174 145 147
3 163 161 174
3 177 176 174
3 175 147 152
3 179 178 152
3 180 167 163
3 177 181 180
3 177 175 178
3 182 181 178
3 169 167 180
3 184 183 180
3 179 154 159
3 182 187 186
3 182 179 185
3 188 173 169
3 184 189 188
3 184 181 186
3 190 138 139
3 192 140 141
3 192 191 139
3 194 193 141
3 190 191 195
3 192 193 197
3 192 198 195
3 199 196 195
3 194 201 197
3 200 198 197
3 199 198 202
3 200 205 202
3 204 203 202
3 155 138 190
3 156 155 206
3 208 157 156
3 158 157 208
3 159 158 209
3 206 190 196
3 212 207 206
3 213 211 196
3 213 214 212
3 208 207 212
3 215 209 208
3 216 217 215
3 210 209 215
3 213 199 203
3 219 214 213
3 220 218 203
3 220 221 219
3 216 214 219
3 222 194 142
3 223 230 222
3 224 230 223
3 225 224 172
3 227 225 226
3 222 228 201
3 228 231 200
3 229 228 222
3 229 234 231
3 224 234 229
3 232 234 224
3 232 248 233
3 227 248 232
3 231 236 205
3 235 204 205
3 237 236 231
3 237 254 235
3 233 254 237
3 185 159 210
3 239 242 186
3 187 185 238
3 240 227 173
3 241 240 188
3 189 186 242
3 243 217 216
3 238 210 217
3 245 243 244
3 245 246 242
3 245 239 238
3 247 250 233
3 247 248 227
3 249 246 250
3 249 247 240
3 249 241 242
3 251 220 204
3 251 252 221
3 244 216 221
3 253 251 235
3 253 254 233
3 255 252 251
3 255 253 250
3 255 246 244
